# xmcd
#
# Track frame offsets: 
#        150
#        33915
#        54235
#
# Disc length: 1043 seconds
#
# Revision: 0
# Processed by: cddbd v1.5.2PL0 Copyright (c) Steve Scherf et al.
# Submitted via: ExactAudioCopy v1.0b1
#
DISCID=19041103
DTITLE=Mod N.4 - Judicta (Remix) CDM
DYEAR=1989
DGENRE=House
TTITLE0=Judicta (Party Version)
TTITLE1=Judicta (Detroit Acid Version)
TTITLE2=Judicta (Radio Version)
EXTD=
EXTT0=
EXTT1=
EXTT2=
PLAYORDER=
